<?xml version="1.0" standalone="no"?>
<!DOCTYPE svg PUBLIC "-//W3C//DTD SVG 20010904//EN"
 "http://www.w3.org/TR/2001/REC-SVG-20010904/DTD/svg10.dtd">
<svg version="1.0" xmlns="http://www.w3.org/2000/svg"
 width="239.000000pt" height="208.000000pt" viewBox="0 0 239.000000 208.000000"
 preserveAspectRatio="xMidYMid meet">

<g transform="translate(0.000000,208.000000) scale(0.100000,-0.100000)"
fill="#312783" stroke="none">
<path d="M1420 1964 c-8 -1 -73 -10 -145 -19 -428 -54 -533 -75 -662 -135 -76
-36 -208 -119 -200 -126 2 -2 158 1 348 6 513 14 609 13 609 -5 0 -51 -90
-173 -157 -211 -91 -54 -87 -54 -603 -54 -264 0 -480 -2 -480 -4 0 -2 53 -16
118 -31 64 -14 122 -28 129 -30 9 -3 7 -19 -7 -61 -11 -31 -20 -62 -20 -68 0
-8 132 -10 460 -7 356 2 460 0 460 -9 0 -26 -65 -133 -97 -159 -19 -15 -55
-38 -81 -51 -61 -31 -148 -35 -661 -35 -424 0 -425 0 -219 -43 92 -19 90 -17
73 -104 l-7 -36 441 5 c337 5 441 3 441 -6 0 -26 -54 -116 -97 -162 -25 -27
-71 -61 -102 -76 l-56 -28 -440 -3 -440 -3 90 -29 c50 -16 143 -45 208 -65
118 -37 119 -37 192 -110 59 -59 92 -83 167 -119 159 -77 121 -89 448 149 156
113 289 204 295 201 11 -4 228 -159 483 -345 40 -29 74 -52 76 -50 3 4 -23 93
-134 460 -33 107 -60 202 -60 210 0 8 130 108 290 224 l289 210 -354 3 -354 2
-40 128 c-22 70 -51 165 -64 212 -59 203 -109 365 -115 371 -4 3 -14 4 -22 3z"/>
</g>
</svg>
